<svg width="44" height="45" viewBox="0 0 44 45" fill="none" xmlns="http://www.w3.org/2000/svg">
<g clip-path="url(#clip0_1_163)">
<path d="M35.5745 31.3637H12.5435C12.0279 31.3637 11.6099 30.9457 11.6099 30.4301V19.6721C11.6099 19.1565 12.0279 18.7385 12.5435 18.7385H35.5745C36.0901 18.7385 36.5081 19.1565 36.5081 19.6721V30.4301C36.5083 30.9456 36.0903 31.3637 35.5745 31.3637Z" fill="url(#paint0_linear_1_163)"/>
<path d="M11.6352 30.0419L12.957 31.3637H35.5745C36.0901 31.3637 36.5081 30.9457 36.5081 30.4301V19.6721C36.5081 19.1565 36.0901 18.7384 35.5745 18.7384H12.5435C12.0279 18.7384 11.6099 19.1564 11.6099 19.6721V29.9876L11.6352 30.0419Z" fill="url(#paint1_linear_1_163)"/>
<path d="M34.1717 29.9634H11.1407C10.625 29.9634 10.207 29.5454 10.207 29.0298V18.2717C10.207 17.7561 10.625 17.3381 11.1407 17.3381H34.1717C34.6873 17.3381 35.1053 17.7561 35.1053 18.2717V29.0297C35.1053 29.5454 34.6873 29.9634 34.1717 29.9634Z" fill="url(#paint2_linear_1_163)"/>
<path d="M10.2322 28.6416L11.554 29.9634H34.1715C34.6871 29.9634 35.1051 29.5454 35.1051 29.0297V18.2717C35.1051 17.756 34.6871 17.338 34.1715 17.338H11.1407C10.625 17.338 10.207 17.756 10.207 18.2717V28.5872L10.2322 28.6416Z" fill="url(#paint3_linear_1_163)"/>
<path d="M32.7737 28.5629H9.74271C9.22708 28.5629 8.80908 28.1449 8.80908 27.6293V16.8713C8.80908 16.3557 9.22708 15.9377 9.74271 15.9377H32.7737C33.2894 15.9377 33.7074 16.3557 33.7074 16.8713V27.6293C33.7074 28.1449 33.2894 28.5629 32.7737 28.5629Z" fill="url(#paint4_linear_1_163)"/>
<path d="M8.83443 27.2411L10.1562 28.5629H32.7737C33.2894 28.5629 33.7074 28.1449 33.7074 27.6293V16.8713C33.7074 16.3557 33.2894 15.9377 32.7737 15.9377H9.74271C9.22708 15.9377 8.80908 16.3557 8.80908 16.8713V27.1868L8.83443 27.2411Z" fill="url(#paint5_linear_1_163)"/>
<path d="M31.4573 27.2455H8.4263C7.91067 27.2455 7.49268 26.8275 7.49268 26.3119V15.5539C7.49268 15.0383 7.91067 14.6203 8.4263 14.6203H31.4573C31.973 14.6203 32.391 15.0383 32.391 15.5539V26.3118C32.391 26.8275 31.973 27.2455 31.4573 27.2455Z" fill="url(#paint6_linear_1_163)"/>
<path d="M30.9827 17.2894C30.3071 17.2543 29.755 16.7008 29.7199 16.0254C29.7122 15.8759 29.7296 15.7318 29.7675 15.596H10.1125C10.1504 15.7316 10.1679 15.8758 10.1601 16.0253C10.1249 16.7008 9.57279 17.2543 8.89732 17.2893C8.66623 17.3014 8.44735 17.2543 8.25391 17.1624V24.7031C8.44752 24.6111 8.66658 24.5641 8.89775 24.5761C9.5733 24.6114 10.1252 25.1651 10.1601 25.8407C10.1677 25.99 10.1504 26.1339 10.1125 26.2695H29.7675C29.7296 26.134 29.7122 25.99 29.7199 25.8407C29.7548 25.1651 30.3067 24.6114 30.9822 24.5761C31.2134 24.564 31.4325 24.611 31.626 24.7031V17.1624C31.4327 17.2544 31.2137 17.3014 30.9827 17.2894Z" fill="url(#paint7_linear_1_163)"/>
<path d="M19.94 24.1655C21.7255 24.1655 23.1729 22.7181 23.1729 20.9325C23.1729 19.147 21.7255 17.6996 19.94 17.6996C18.1545 17.6996 16.707 19.147 16.707 20.9325C16.707 22.7181 18.1545 24.1655 19.94 24.1655Z" fill="url(#paint8_linear_1_163)"/>
<path d="M15.4964 16.7837H10.5312V18.2121H15.4964V16.7837Z" fill="url(#paint9_linear_1_163)"/>
<path d="M29.3479 23.6537H24.3828V25.082H29.3479V23.6537Z" fill="url(#paint10_linear_1_163)"/>
<path d="M42.7321 10.9645C41.8421 10.6389 40.868 11.0106 40.405 11.8003C38.9453 9.39083 37.0181 7.2827 34.6969 5.57934C30.9772 2.85014 26.5661 1.40759 21.9402 1.40759C17.3142 1.40759 12.903 2.85014 9.18345 5.57934C5.54048 8.25233 2.86646 11.9215 1.4503 16.1898C1.11454 17.2019 1.66282 18.2946 2.6749 18.6304C3.68733 18.9663 4.77977 18.4179 5.11544 17.4058C6.27791 13.902 8.47456 10.8891 11.4679 8.69267C14.5204 6.45289 18.1416 5.26893 21.9402 5.26893C25.7388 5.26893 29.3598 6.45289 32.4124 8.69276C34.1951 10.0007 35.695 11.5985 36.8623 13.4169C35.9741 13.2834 35.0847 13.787 34.7641 14.6634C34.3976 15.6649 34.9124 16.7737 35.9138 17.1401L39.9341 18.6111C39.9437 18.6147 39.9535 18.617 39.9631 18.6203C39.9969 18.6321 40.0309 18.6428 40.0653 18.6526C40.0837 18.6579 40.102 18.6633 40.1204 18.6681C40.1551 18.677 40.1901 18.6844 40.2253 18.6914C40.2433 18.6949 40.2612 18.699 40.2791 18.7021C40.3165 18.7083 40.3541 18.7127 40.392 18.7169C40.4074 18.7186 40.4228 18.7211 40.4382 18.7223C40.4909 18.7267 40.5439 18.7292 40.5972 18.7292C40.5972 18.7292 40.5972 18.7292 40.5972 18.7292H40.5973C40.6474 18.7292 40.6974 18.7271 40.7469 18.7233C40.7587 18.7223 40.7705 18.7204 40.7824 18.7192C40.8205 18.7155 40.8586 18.7116 40.8963 18.7056C40.9109 18.7033 40.9254 18.6998 40.9401 18.6972C40.9753 18.6908 41.0103 18.6842 41.0449 18.6759C41.0611 18.6721 41.0772 18.6671 41.0934 18.6627C41.1263 18.654 41.1588 18.6451 41.191 18.6347C41.1958 18.6331 41.2006 18.6321 41.2055 18.6306C41.215 18.6274 41.224 18.623 41.2335 18.6197C41.2761 18.6048 41.3181 18.5886 41.3595 18.5708C41.3773 18.5633 41.395 18.5556 41.4124 18.5475C41.4527 18.5287 41.4924 18.5084 41.5314 18.4868C41.5438 18.48 41.5566 18.4739 41.5689 18.4668C41.6158 18.4396 41.6613 18.4098 41.7059 18.3786C41.7234 18.3664 41.74 18.3534 41.7568 18.3407C41.7865 18.3183 41.8157 18.2953 41.8443 18.2712C41.8599 18.258 41.8754 18.2448 41.8906 18.231C41.9231 18.2017 41.9545 18.1711 41.985 18.1396C41.9935 18.1308 42.0026 18.1225 42.0108 18.1136C42.0506 18.0708 42.0887 18.0262 42.1247 17.9796C42.1272 17.9763 42.1294 17.9729 42.1319 17.9696C42.164 17.9275 42.1944 17.8837 42.2232 17.8386C42.2308 17.8264 42.2381 17.8141 42.2455 17.8019C42.2678 17.7653 42.2888 17.7279 42.3089 17.6895C42.317 17.6736 42.3253 17.6579 42.333 17.6418C42.3505 17.6058 42.3665 17.5691 42.3819 17.5316C42.389 17.5142 42.3967 17.4971 42.4033 17.4796C42.4055 17.4736 42.4084 17.4678 42.4106 17.4617L43.8817 13.4415C44.2482 12.4399 43.7334 11.3309 42.7321 10.9645Z" fill="url(#paint11_linear_1_163)"/>
<path d="M1.26782 35.0193C2.15778 35.3449 3.13188 34.9733 3.59491 34.1835C5.05465 36.593 6.98179 38.7011 9.30304 40.4045C13.0226 43.1337 17.4338 44.5764 22.0598 44.5764C26.6857 44.5764 31.0969 43.1338 34.8165 40.4045C38.4594 37.7315 41.1335 34.0624 42.5497 29.794C42.8855 28.7819 42.3372 27.6892 41.3251 27.3535C40.3127 27.0176 39.2202 27.566 38.8846 28.5781C37.7221 32.0818 35.5254 35.0948 32.5321 37.2912C29.4796 39.5309 25.8584 40.7149 22.0598 40.7149C18.2612 40.7149 14.6402 39.531 11.5876 37.2912C9.80492 35.9832 8.30497 34.3855 7.13768 32.567C8.02593 32.7005 8.91529 32.1969 9.23593 31.3205C9.60245 30.3192 9.0876 29.2102 8.08617 28.8438L4.06594 27.3728C4.05631 27.3693 4.04652 27.367 4.03689 27.3636C4.00312 27.3518 3.96909 27.3412 3.93471 27.3313C3.91632 27.326 3.89802 27.3206 3.87963 27.3158C3.84491 27.307 3.80993 27.2995 3.7747 27.2925C3.75673 27.289 3.73877 27.2849 3.7209 27.2819C3.68352 27.2756 3.64588 27.2712 3.60798 27.267C3.59259 27.2654 3.57721 27.2628 3.56183 27.2616C3.50915 27.2572 3.45613 27.2547 3.40284 27.2547C3.40284 27.2547 3.40285 27.2547 3.40276 27.2547H3.40267C3.35257 27.2547 3.30264 27.2568 3.25314 27.2607C3.24128 27.2616 3.22951 27.2636 3.21765 27.2647C3.17949 27.2684 3.14142 27.2723 3.1037 27.2784C3.08909 27.2807 3.07456 27.2841 3.05987 27.2868C3.02472 27.2931 2.98974 27.2998 2.95511 27.308C2.93887 27.3119 2.9228 27.3169 2.90656 27.3212C2.87381 27.3299 2.84116 27.3389 2.80902 27.3493C2.80421 27.3508 2.79939 27.3518 2.79449 27.3534C2.78496 27.3566 2.77602 27.3609 2.76648 27.3642C2.72394 27.3792 2.68192 27.3953 2.64049 27.4131C2.62271 27.4207 2.605 27.4283 2.58764 27.4364C2.54725 27.4552 2.50764 27.4756 2.46862 27.4972C2.45625 27.5039 2.44335 27.51 2.43115 27.5171C2.38423 27.5443 2.33868 27.5742 2.29408 27.6053C2.27664 27.6176 2.26005 27.6305 2.24321 27.6432C2.21347 27.6656 2.18425 27.6886 2.15572 27.7127C2.14008 27.7259 2.12461 27.7392 2.1094 27.7529C2.07692 27.7822 2.04546 27.8128 2.01496 27.8443C2.00654 27.8531 1.99743 27.8614 1.98918 27.8704C1.94939 27.9131 1.91132 27.9578 1.87531 28.0044C1.87282 28.0076 1.87058 28.0111 1.86809 28.0143C1.83604 28.0564 1.80561 28.1003 1.77682 28.1454C1.76918 28.1575 1.76187 28.1698 1.75448 28.1821C1.73222 28.2187 1.71117 28.2561 1.69115 28.2945C1.68298 28.3103 1.67473 28.326 1.667 28.3421C1.64955 28.3781 1.63348 28.4149 1.6181 28.4523C1.61097 28.4697 1.60332 28.4868 1.5967 28.5043C1.59447 28.5104 1.59163 28.5161 1.5894 28.5222L0.118148 32.5426C-0.248374 33.544 0.26639 34.653 1.26782 35.0193Z" fill="url(#paint12_radial_1_163)"/>
</g>
<defs>
<linearGradient id="paint0_linear_1_163" x1="11.6096" y1="25.0515" x2="36.5074" y2="25.0515" gradientUnits="userSpaceOnUse">
<stop stop-color="#61DB99"/>
<stop offset="1" stop-color="#009E74"/>
</linearGradient>
<linearGradient id="paint1_linear_1_163" x1="25.1839" y1="28.8572" x2="23.8777" y2="24.1096" gradientUnits="userSpaceOnUse">
<stop stop-color="#009E74" stop-opacity="0"/>
<stop offset="1" stop-color="#009E74"/>
</linearGradient>
<linearGradient id="paint2_linear_1_163" x1="10.2068" y1="23.6512" x2="35.1046" y2="23.6512" gradientUnits="userSpaceOnUse">
<stop stop-color="#61DB99"/>
<stop offset="1" stop-color="#009E74"/>
</linearGradient>
<linearGradient id="paint3_linear_1_163" x1="23.6262" y1="28.0298" x2="22.7652" y2="23.906" gradientUnits="userSpaceOnUse">
<stop stop-color="#009E74" stop-opacity="0"/>
<stop offset="1" stop-color="#009E74"/>
</linearGradient>
<linearGradient id="paint4_linear_1_163" x1="8.80886" y1="22.2508" x2="33.7067" y2="22.2508" gradientUnits="userSpaceOnUse">
<stop stop-color="#61DB99"/>
<stop offset="1" stop-color="#009E74"/>
</linearGradient>
<linearGradient id="paint5_linear_1_163" x1="23.1313" y1="29.3895" x2="19.1274" y2="13.5352" gradientUnits="userSpaceOnUse">
<stop stop-color="#009E74" stop-opacity="0"/>
<stop offset="1" stop-color="#009E74"/>
</linearGradient>
<linearGradient id="paint6_linear_1_163" x1="7.4925" y1="20.9334" x2="32.3903" y2="20.9334" gradientUnits="userSpaceOnUse">
<stop stop-color="#A7F3CE"/>
<stop offset="1" stop-color="#61DB99"/>
</linearGradient>
<linearGradient id="paint7_linear_1_163" x1="13.4361" y1="14.4298" x2="29.2792" y2="30.2729" gradientUnits="userSpaceOnUse">
<stop stop-color="#61DB99"/>
<stop offset="1" stop-color="#009E74"/>
</linearGradient>
<linearGradient id="paint8_linear_1_163" x1="18.0157" y1="19.0092" x2="22.7028" y2="23.6964" gradientUnits="userSpaceOnUse">
<stop stop-color="#A7F3CE"/>
<stop offset="1" stop-color="#61DB99"/>
</linearGradient>
<linearGradient id="paint9_linear_1_163" x1="11.6688" y1="16.1538" x2="14.9455" y2="19.4304" gradientUnits="userSpaceOnUse">
<stop stop-color="#A7F3CE"/>
<stop offset="1" stop-color="#61DB99"/>
</linearGradient>
<linearGradient id="paint10_linear_1_163" x1="25.5196" y1="23.0232" x2="28.7963" y2="26.2998" gradientUnits="userSpaceOnUse">
<stop stop-color="#A7F3CE"/>
<stop offset="1" stop-color="#61DB99"/>
</linearGradient>
<linearGradient id="paint11_linear_1_163" x1="1.35154" y1="10.0692" x2="43.999" y2="10.0692" gradientUnits="userSpaceOnUse">
<stop stop-color="#FFB92D"/>
<stop offset="1" stop-color="#F59500"/>
</linearGradient>
<radialGradient id="paint12_radial_1_163" cx="0" cy="0" r="1" gradientUnits="userSpaceOnUse" gradientTransform="translate(22.2838 23.1302) rotate(180) scale(21.8589 21.8588)">
<stop stop-color="#BE3F45"/>
<stop offset="0.317" stop-color="#C14046"/>
<stop offset="0.538" stop-color="#CA4148"/>
<stop offset="0.729" stop-color="#D9444B"/>
<stop offset="0.902" stop-color="#EF4950"/>
<stop offset="1" stop-color="#FF4C54"/>
</radialGradient>
<clipPath id="clip0_1_163">
<rect width="44" height="44" fill="white" transform="translate(0 0.992004)"/>
</clipPath>
</defs>
</svg>
