<svg width="32" height="39" viewBox="0 0 32 39" fill="none" xmlns="http://www.w3.org/2000/svg">
<path d="M15.8877 17.1828L2.3125 19.4536L7.4074 37.893C7.55508 38.3925 8.04734 38.7559 8.61344 38.7559H23.3813C23.9473 38.7559 24.4396 38.3925 24.5873 37.893L29.6824 19.4536L15.8877 17.1828ZM13.5361 13.7765C14.2163 13.7765 14.7667 13.2687 14.7667 12.6411V1.13543C14.7667 0.507838 14.2163 0 13.5361 0C12.8558 0 12.3054 0.507838 12.3054 1.13543V12.6411C12.3054 13.2687 12.8558 13.7765 13.5361 13.7765ZM18.4587 13.7765C19.1389 13.7765 19.6893 13.2687 19.6893 12.6411V1.13543C19.6893 0.507838 19.1389 0 18.4587 0C17.7784 0 17.228 0.507838 17.228 1.13543V12.6411C17.228 13.2687 17.7784 13.7765 18.4587 13.7765Z" fill="url(#paint0_linear_1_151)"/>
<path d="M31.3092 13.8901C30.7185 13.6176 29.98 13.8446 29.6603 14.4123L28.1587 17.1828L24.4176 12.0052C24.1715 11.6873 23.8022 11.5057 23.3839 11.5057H8.61606C8.19764 11.5057 7.82844 11.6873 7.58231 12.0052L3.84113 17.1828L2.33973 14.4123C2.01976 13.8446 1.28137 13.6176 0.690738 13.8901C0.0754119 14.1853 -0.170801 14.8665 0.124556 15.4115L2.31512 19.4537H29.685L31.8753 15.4115C32.1709 14.8665 31.9245 14.1853 31.3092 13.8901ZM16 25.1308C13.9642 25.1308 12.308 26.6588 12.308 28.5371C12.308 30.4154 13.9642 31.9434 16 31.9434C18.0358 31.9434 19.6919 30.4154 19.6919 28.5371C19.6919 26.6588 18.0358 25.1308 16 25.1308Z" fill="url(#paint1_linear_1_151)"/>
<defs>
<linearGradient id="paint0_linear_1_151" x1="15.9974" y1="38.7559" x2="15.9974" y2="0" gradientUnits="userSpaceOnUse">
<stop stop-color="#FD3A84"/>
<stop offset="1" stop-color="#FFA68D"/>
</linearGradient>
<linearGradient id="paint1_linear_1_151" x1="16" y1="31.9434" x2="16" y2="11.5057" gradientUnits="userSpaceOnUse">
<stop stop-color="#FFC2CC"/>
<stop offset="1" stop-color="#FFF2F4"/>
</linearGradient>
</defs>
</svg>
