<svg width="52" height="40" viewBox="0 0 52 40" fill="none" xmlns="http://www.w3.org/2000/svg">
<path d="M37.3988 33.7216V13.3318H3.39893V33.7216C3.39893 34.5879 4.15999 35.2901 5.09892 35.2901H35.6988C36.6377 35.2901 37.3988 34.5879 37.3988 33.7216Z" fill="#289BC3"/>
<path d="M13.6015 30.5847H10.2015C7.38486 30.5847 5.10156 32.6913 5.10156 35.2901C5.10156 37.8888 7.38486 39.9954 10.2015 39.9954H13.6015C16.4182 39.9954 18.7015 37.8888 18.7015 35.2901C18.7015 32.6913 16.4182 30.5847 13.6015 30.5847Z" fill="#32283C"/>
<path d="M44.1987 30.5847H40.7987C37.982 30.5847 35.6987 32.6913 35.6987 35.2901C35.6987 37.8888 37.982 39.9954 40.7987 39.9954H44.1987C47.0154 39.9954 49.2987 37.8888 49.2987 35.2901C49.2987 32.6913 47.0154 30.5847 44.1987 30.5847Z" fill="#32283C"/>
<path d="M40.7987 39.9954C43.6153 39.9954 45.8987 37.8887 45.8987 35.2901C45.8987 32.6914 43.6153 30.5847 40.7987 30.5847C37.9821 30.5847 35.6987 32.6914 35.6987 35.2901C35.6987 37.8887 37.9821 39.9954 40.7987 39.9954Z" fill="#555A6E"/>
<path d="M40.7976 36.8585C41.7365 36.8585 42.4976 36.1563 42.4976 35.2901C42.4976 34.4238 41.7365 33.7216 40.7976 33.7216C39.8588 33.7216 39.0977 34.4238 39.0977 35.2901C39.0977 36.1563 39.8588 36.8585 40.7976 36.8585Z" fill="#E6E6EB"/>
<path d="M30.601 30.5847H27.201C24.3844 30.5847 22.1011 32.6913 22.1011 35.2901C22.1011 37.8888 24.3844 39.9954 27.201 39.9954H30.601C33.4177 39.9954 35.701 37.8888 35.701 35.2901C35.701 32.6913 33.4177 30.5847 30.601 30.5847Z" fill="#32283C"/>
<path d="M47.6022 14.9003H22.1023C21.1634 14.9003 20.4023 15.6024 20.4023 16.4687V18.0372H47.6022C48.5411 18.0372 49.3022 17.335 49.3022 16.4687C49.3022 15.6024 48.5411 14.9003 47.6022 14.9003Z" fill="#A5C3DC"/>
<path d="M30.6023 14.9003H22.1023C21.1634 14.9003 20.4023 15.6024 20.4023 16.4687V18.0372H30.6023C31.5412 18.0372 32.3023 17.335 32.3023 16.4687C32.3023 15.6024 31.5412 14.9003 30.6023 14.9003Z" fill="#D7E6F0"/>
<path d="M20.4023 18.0372H47.6022V25.8794H20.4023V18.0372Z" fill="#463C4B"/>
<path d="M20.4023 18.0372H30.6023V25.8794H20.4023V18.0372Z" fill="#555A6E"/>
<path d="M49.3022 35.29H22.1023C21.1634 35.29 20.4023 34.5878 20.4023 33.7216V25.8793H47.6022C49.4799 25.8793 51.0022 27.2838 51.0022 29.0162V33.7216C51.0022 34.5878 50.2411 35.29 49.3022 35.29Z" fill="#A5C3DC"/>
<path d="M32.3023 35.29H22.1023C21.1634 35.29 20.4023 34.5878 20.4023 33.7216V25.8793H30.6023C32.48 25.8793 34.0023 27.2838 34.0023 29.0162V33.7216C34.0023 34.5878 33.2412 35.29 32.3023 35.29Z" fill="#D7E6F0"/>
<path d="M38.1072 29.0163H46.8905C48.2206 29.0163 49.2988 30.0111 49.2988 31.2383C49.2988 32.4654 48.2205 33.4603 46.8904 33.4603H38.1071C36.7771 33.4603 35.6987 32.4655 35.6987 31.2383C35.6988 30.0111 36.7771 29.0163 38.1072 29.0163Z" fill="#555A6E"/>
<path d="M38.1109 32.4146C38.8151 32.4146 39.3859 31.888 39.3859 31.2383C39.3859 30.5886 38.8151 30.062 38.1109 30.062C37.4068 30.062 36.8359 30.5886 36.8359 31.2383C36.8359 31.888 37.4068 32.4146 38.1109 32.4146Z" fill="#00D2D2"/>
<path d="M46.8883 32.4146C47.5924 32.4146 48.1633 31.888 48.1633 31.2383C48.1633 30.5886 47.5924 30.062 46.8883 30.062C46.1841 30.062 45.6133 30.5886 45.6133 31.2383C45.6133 31.888 46.1841 32.4146 46.8883 32.4146Z" fill="#00D2D2"/>
<path d="M16.1497 0H11.0497C10.5803 0 10.1997 0.351136 10.1997 0.784224C10.1997 1.21731 10.5803 1.56845 11.0497 1.56845C14.3305 1.56845 16.9997 4.03111 16.9997 7.05802C16.9997 7.4911 17.3803 7.84224 17.8497 7.84224H22.9496C23.4191 7.84224 23.7996 7.4911 23.7996 7.05802C23.7996 3.16621 20.3679 0 16.1497 0Z" fill="#A5C3DC"/>
<path d="M29.7494 0H24.6495C20.4313 0 16.9995 3.16621 16.9995 7.05802C16.9995 7.4911 17.3801 7.84224 17.8495 7.84224H22.9495C23.4189 7.84224 23.7995 7.4911 23.7995 7.05802C23.7995 4.03111 26.4687 1.56845 29.7494 1.56845C30.2189 1.56845 30.5994 1.21731 30.5994 0.784224C30.5994 0.351136 30.2189 0 29.7494 0Z" fill="#A5C3DC"/>
<path d="M33.1497 0H28.0497C27.5803 0 27.1997 0.351136 27.1997 0.784224C27.1997 1.21731 27.5803 1.56845 28.0497 1.56845C29.4558 1.56845 30.5997 2.62382 30.5997 3.92112C30.5997 5.21842 29.4558 6.27379 28.0497 6.27379C27.5803 6.27379 27.1997 6.62493 27.1997 7.05802C27.1997 7.4911 27.5803 7.84224 28.0497 7.84224H33.1497C35.4931 7.84224 37.3997 6.08322 37.3997 3.92112C37.3997 1.75901 35.4931 0 33.1497 0Z" fill="#A5C3DC"/>
<path d="M12.7489 6.27379C11.3428 6.27379 10.1989 5.21842 10.1989 3.92112C10.1989 2.62382 11.3428 1.56845 12.7489 1.56845C13.2183 1.56845 13.5989 1.21731 13.5989 0.784224C13.5989 0.351136 13.2183 0 12.7489 0H7.6489C5.30547 0 3.39893 1.75901 3.39893 3.92112C3.39893 6.08322 5.30547 7.84224 7.6489 7.84224H12.7489C13.2183 7.84224 13.5989 7.4911 13.5989 7.05802C13.5989 6.62493 13.2183 6.27379 12.7489 6.27379Z" fill="#A5C3DC"/>
<path d="M39.0998 7.84222H1.69999C0.761065 7.84222 0 8.5444 0 9.41067V11.7633C0 12.6296 0.761065 13.3318 1.69999 13.3318H39.0998C40.0387 13.3318 40.7998 12.6296 40.7998 11.7633V9.41067C40.7998 8.5444 40.0387 7.84222 39.0998 7.84222Z" fill="#289BC3"/>
<path d="M18.6988 35.29H5.09892C4.15999 35.29 3.39893 34.5879 3.39893 33.7216V18.0371H20.3988V33.7216C20.3988 34.5879 19.6378 35.29 18.6988 35.29Z" fill="#00D2D2"/>
<path d="M20.3999 7.84222H1.69999C0.761065 7.84222 0 8.5444 0 9.41067V11.7633C0 12.6296 0.761065 13.3318 1.69999 13.3318H20.3999C21.3388 13.3318 22.0999 12.6296 22.0999 11.7633V9.41067C22.0999 8.5444 21.3388 7.84222 20.3999 7.84222Z" fill="#00D2D2"/>
<path d="M11.8978 11.7633C11.8978 12.6296 12.6589 13.3318 13.5978 13.3318H8.49784C7.55892 13.3318 6.79785 12.6296 6.79785 11.7633V9.41067C6.79785 8.5444 7.55892 7.84222 8.49784 7.84222H13.5978C12.6589 7.84222 11.8978 8.5444 11.8978 9.41067V11.7633Z" fill="#D7E6F0"/>
<path d="M28.9031 11.7634C28.9031 12.6297 28.1421 13.3319 27.2031 13.3319H32.3031C33.242 13.3319 34.0031 12.6297 34.0031 11.7634V9.41073C34.0031 8.54446 33.242 7.84229 32.3031 7.84229H27.2031C28.1421 7.84229 28.9031 8.54446 28.9031 9.41073V11.7634Z" fill="#A5C3DC"/>
<path d="M28.0529 7.84224H17.0029V7.05802C17.0029 3.16621 20.4347 0 24.6529 0H28.0529C30.3963 0 32.3028 1.75901 32.3028 3.92112C32.3028 6.08322 30.3963 7.84224 28.0529 7.84224ZM18.7635 6.27379H28.0529C29.459 6.27379 30.6029 5.21842 30.6029 3.92112C30.6029 2.62382 29.459 1.56845 28.0529 1.56845H24.6529C21.6606 1.56845 19.1771 3.61694 18.7635 6.27379Z" fill="#D7E6F0"/>
<path d="M18.6988 7.84224H7.6489C5.30547 7.84224 3.39893 6.08322 3.39893 3.92112C3.39893 1.75901 5.30547 0 7.6489 0H11.0489C15.2671 0 18.6988 3.16621 18.6988 7.05802V7.84224ZM7.6489 1.56845C6.2428 1.56845 5.09892 2.62382 5.09892 3.92112C5.09892 5.21842 6.2428 6.27379 7.6489 6.27379H16.9383C16.5246 3.61694 14.0411 1.56845 11.0489 1.56845H7.6489Z" fill="#D7E6F0"/>
<path d="M27.201 39.9954C30.0177 39.9954 32.301 37.8887 32.301 35.2901C32.301 32.6914 30.0177 30.5847 27.201 30.5847C24.3844 30.5847 22.1011 32.6914 22.1011 35.2901C22.1011 37.8887 24.3844 39.9954 27.201 39.9954Z" fill="#555A6E"/>
<path d="M27.2 36.8585C28.1389 36.8585 28.9 36.1563 28.9 35.2901C28.9 34.4238 28.1389 33.7216 27.2 33.7216C26.2611 33.7216 25.5 34.4238 25.5 35.2901C25.5 36.1563 26.2611 36.8585 27.2 36.8585Z" fill="#E6E6EB"/>
<path d="M10.2015 39.9954C13.0182 39.9954 15.3015 37.8887 15.3015 35.2901C15.3015 32.6914 13.0182 30.5847 10.2015 30.5847C7.3849 30.5847 5.10156 32.6914 5.10156 35.2901C5.10156 37.8887 7.3849 39.9954 10.2015 39.9954Z" fill="#555A6E"/>
<path d="M10.1966 36.8585C11.1355 36.8585 11.8966 36.1563 11.8966 35.2901C11.8966 34.4238 11.1355 33.7216 10.1966 33.7216C9.25769 33.7216 8.49658 34.4238 8.49658 35.2901C8.49658 36.1563 9.25769 36.8585 10.1966 36.8585Z" fill="#E6E6EB"/>
</svg>
