<svg width="54" height="55" viewBox="0 0 54 55" fill="none" xmlns="http://www.w3.org/2000/svg">
<path d="M43.6875 31.367H35.4375C35.2137 31.367 34.9991 31.2781 34.8409 31.1199C34.6826 30.9616 34.5938 30.747 34.5938 30.5233C34.5938 30.2995 34.6826 30.0849 34.8409 29.9266C34.9991 29.7684 35.2137 29.6795 35.4375 29.6795H43.6875C43.9113 29.6795 44.1259 29.7684 44.2841 29.9266C44.4423 30.0849 44.5312 30.2995 44.5312 30.5233C44.5312 30.747 44.4423 30.9616 44.2841 31.1199C44.1259 31.2781 43.9113 31.367 43.6875 31.367Z" fill="#E0E2E5"/>
<path d="M25.3125 20.3983L27 40.6483V42.3358H37.125V40.6483L38.8125 20.3983H25.3125Z" fill="#93573D"/>
<path d="M16.875 20.3983V19.5545H13.5V22.0858H10.125V30.5233H13.5H16.875V29.6795H20.25V20.3983H16.875Z" fill="#FDD14B"/>
<path d="M13.5 33.0545C13.2762 33.0545 13.0616 32.9656 12.9034 32.8074C12.7451 32.6491 12.6562 32.4345 12.6562 32.2108V22.9295C12.6562 22.7057 12.7451 22.4911 12.9034 22.3329C13.0616 22.1746 13.2762 22.0858 13.5 22.0858C13.7238 22.0858 13.9384 22.1746 14.0966 22.3329C14.2549 22.4911 14.3438 22.7057 14.3438 22.9295V32.2108C14.3438 32.4345 14.2549 32.6491 14.0966 32.8074C13.9384 32.9656 13.7238 33.0545 13.5 33.0545Z" fill="#E4BC43"/>
<path d="M16.9957 34.742C16.7733 34.742 16.5599 34.6542 16.4019 34.4977C16.2439 34.3412 16.1541 34.1286 16.1519 33.9062L16.0313 21.25C16.0292 21.0262 16.116 20.8108 16.2727 20.651C16.4295 20.4913 16.6432 20.4004 16.867 20.3982C17.0908 20.3961 17.3063 20.483 17.466 20.6397C17.6257 20.7964 17.7167 21.0102 17.7188 21.234L17.8393 33.8902C17.8415 34.114 17.7546 34.3294 17.598 34.4891C17.4413 34.6489 17.2276 34.7398 17.0038 34.742H16.9957Z" fill="#E4BC43"/>
<path d="M9.28125 28.8358L10.9688 40.6483V42.3358H21.0938V40.6483V28.8358H9.28125Z" fill="#E74444"/>
<path d="M48.9375 31.367H47.25C47.0262 31.367 46.8116 31.2781 46.6534 31.1199C46.4951 30.9616 46.4062 30.747 46.4062 30.5233C46.4062 30.2995 46.4951 30.0849 46.6534 29.9266C46.8116 29.7684 47.0262 29.6795 47.25 29.6795H48.9375C49.1613 29.6795 49.3759 29.7684 49.5341 29.9266C49.6924 30.0849 49.7812 30.2995 49.7812 30.5233C49.7812 30.747 49.6924 30.9616 49.5341 31.1199C49.3759 31.2781 49.1613 31.367 48.9375 31.367Z" fill="#E0E2E5"/>
<path d="M38.8125 20.3983L38.5309 23.7733H25.5941L25.3125 20.3983H38.8125Z" fill="#A4D4F4"/>
<path d="M23.6737 15.3357C23.521 15.3356 23.3712 15.2941 23.2403 15.2155C23.1094 15.137 23.0022 15.0244 22.9302 14.8897C22.8583 14.7551 22.8242 14.6034 22.8316 14.4509C22.839 14.2984 22.8877 14.1508 22.9724 14.0238L23.774 12.8208C23.8936 12.6414 23.94 12.4229 23.9036 12.2104C23.8672 11.9978 23.7507 11.8073 23.5782 11.6779L22.7574 11.062C22.24 10.6736 21.891 10.102 21.7819 9.46435C21.6728 8.82673 21.8119 8.17153 22.1706 7.63324L22.9722 6.43015C23.0337 6.33796 23.1127 6.25877 23.2048 6.19712C23.2968 6.13547 23.4001 6.09255 23.5088 6.07082C23.6175 6.0491 23.7293 6.04898 23.838 6.07049C23.9467 6.092 24.0501 6.1347 24.1423 6.19617C24.2345 6.25764 24.3137 6.33667 24.3754 6.42874C24.437 6.52081 24.4799 6.62412 24.5017 6.73277C24.5234 6.84143 24.5235 6.9533 24.502 7.062C24.4805 7.1707 24.4378 7.2741 24.3763 7.3663L23.5744 8.56927C23.4548 8.74873 23.4085 8.96717 23.4449 9.17973C23.4813 9.39229 23.5977 9.58284 23.7703 9.71224L24.5911 10.3281C25.1086 10.7164 25.4577 11.288 25.5669 11.9257C25.6762 12.5633 25.5372 13.2186 25.1785 13.757L24.3769 14.96C24.2998 15.0758 24.1952 15.1707 24.0725 15.2363C23.9498 15.3018 23.8128 15.336 23.6737 15.3357Z" fill="#E0E2E5"/>
<path d="M16.9237 15.3358C16.771 15.3357 16.6212 15.2942 16.4903 15.2156C16.3594 15.1371 16.2522 15.0245 16.1802 14.8899C16.1083 14.7552 16.0742 14.6036 16.0816 14.4511C16.089 14.2986 16.1377 14.1509 16.2224 14.0239L17.024 12.8209C17.1436 12.6415 17.19 12.4231 17.1536 12.2105C17.1172 11.9979 17.0007 11.8074 16.8282 11.678L16.0074 11.0622C15.49 10.6738 15.141 10.1021 15.0319 9.46448C14.9228 8.82686 15.0619 8.17166 15.4206 7.63336L16.2222 6.43028C16.3463 6.24408 16.5394 6.11483 16.7588 6.07095C16.9782 6.02707 17.2061 6.07216 17.3923 6.1963C17.5785 6.32044 17.7078 6.51346 17.7517 6.7329C17.7955 6.95234 17.7504 7.18022 17.6263 7.36642L16.8244 8.5694C16.7048 8.74885 16.6585 8.96729 16.6949 9.17986C16.7313 9.39242 16.8477 9.58297 17.0203 9.71236L17.8411 10.3282C18.3586 10.7165 18.7077 11.2882 18.8169 11.9258C18.9262 12.5634 18.7872 13.2187 18.4285 13.7571L17.6269 14.9602C17.5498 15.0759 17.4452 15.1708 17.3225 15.2364C17.1998 15.3019 17.0628 15.3361 16.9237 15.3358Z" fill="#E0E2E5"/>
<path d="M30.3299 15.3357C30.1772 15.3356 30.0274 15.2941 29.8965 15.2155C29.7656 15.137 29.6584 15.0244 29.5865 14.8897C29.5145 14.7551 29.4804 14.6034 29.4878 14.4509C29.4952 14.2985 29.5439 14.1508 29.6286 14.0238L30.4307 12.8208C30.5503 12.6414 30.5967 12.4229 30.5603 12.2104C30.5238 11.9978 30.4074 11.8073 30.2349 11.6779L29.414 11.0621C28.8966 10.6738 28.5474 10.1022 28.4382 9.46455C28.329 8.82691 28.468 8.17165 28.8266 7.63326L29.6282 6.43017C29.7523 6.24389 29.9454 6.11456 30.1649 6.07062C30.2736 6.04886 30.3855 6.04873 30.4942 6.07022C30.603 6.09171 30.7064 6.13441 30.7986 6.19588C30.8909 6.25734 30.9701 6.33638 31.0318 6.42846C31.0935 6.52055 31.1364 6.62388 31.1582 6.73257C31.18 6.84126 31.1801 6.95316 31.1586 7.0619C31.1371 7.17064 31.0944 7.27408 31.0329 7.36631L30.2314 8.56929C30.1118 8.74873 30.0654 8.96717 30.1018 9.17973C30.1382 9.39229 30.2546 9.58285 30.4271 9.71226L31.248 10.3281C31.7655 10.7164 32.1146 11.288 32.2239 11.9257C32.3331 12.5633 32.1941 13.2186 31.8354 13.757L31.0338 14.9601C30.9566 15.0759 30.8519 15.1709 30.7291 15.2364C30.6063 15.302 30.4691 15.3361 30.3299 15.3357Z" fill="#E0E2E5"/>
<path d="M51.4688 26.3045H42.1875C41.9637 26.3045 41.7491 26.2156 41.5909 26.0574C41.4326 25.8991 41.3438 25.6845 41.3438 25.4608C41.3438 25.237 41.4326 25.0224 41.5909 24.8641C41.7491 24.7059 41.9637 24.617 42.1875 24.617H51.4688C51.6925 24.617 51.9071 24.7059 52.0654 24.8641C52.2236 25.0224 52.3125 25.237 52.3125 25.4608C52.3125 25.6845 52.2236 25.8991 52.0654 26.0574C51.9071 26.2156 51.6925 26.3045 51.4688 26.3045Z" fill="#E0E2E5"/>
<path d="M45.5625 36.4295H40.5C40.2762 36.4295 40.0616 36.3406 39.9034 36.1824C39.7451 36.0241 39.6562 35.8095 39.6562 35.5858C39.6562 35.362 39.7451 35.1474 39.9034 34.9891C40.0616 34.8309 40.2762 34.742 40.5 34.742H45.5625C45.7863 34.742 46.0009 34.8309 46.1591 34.9891C46.3174 35.1474 46.4062 35.362 46.4062 35.5858C46.4062 35.8095 46.3174 36.0241 46.1591 36.1824C46.0009 36.3406 45.7863 36.4295 45.5625 36.4295Z" fill="#E0E2E5"/>
<path d="M51.4688 49.9295H2.53125C2.30747 49.9295 2.09286 49.8406 1.93463 49.6824C1.77639 49.5241 1.6875 49.3095 1.6875 49.0858C1.6875 48.862 1.77639 48.6474 1.93463 48.4891C2.09286 48.3309 2.30747 48.242 2.53125 48.242H51.4688C51.6925 48.242 51.9071 48.3309 52.0654 48.4891C52.2236 48.6474 52.3125 48.862 52.3125 49.0858C52.3125 49.3095 52.2236 49.5241 52.0654 49.6824C51.9071 49.8406 51.6925 49.9295 51.4688 49.9295Z" fill="#C2C5C6"/>
<path d="M2.53125 40.6483H44.7188V42.3358C44.7188 42.7833 44.541 43.2125 44.2245 43.529C43.908 43.8455 43.4788 44.0233 43.0312 44.0233H4.21875C3.7712 44.0233 3.34197 43.8455 3.02551 43.529C2.70904 43.2125 2.53125 42.7833 2.53125 42.3358V40.6483Z" fill="#FDD14B"/>
<path d="M36.2812 49.0858C39.0772 49.0858 41.3438 46.8192 41.3438 44.0233C41.3438 41.2273 39.0772 38.9608 36.2812 38.9608C33.4853 38.9608 31.2188 41.2273 31.2188 44.0233C31.2188 46.8192 33.4853 49.0858 36.2812 49.0858Z" fill="#6A7073"/>
<path d="M36.2812 45.7108C37.2132 45.7108 37.9688 44.9552 37.9688 44.0233C37.9688 43.0913 37.2132 42.3358 36.2812 42.3358C35.3493 42.3358 34.5938 43.0913 34.5938 44.0233C34.5938 44.9552 35.3493 45.7108 36.2812 45.7108Z" fill="#99A2A7"/>
<path d="M10.9688 49.0858C13.7647 49.0858 16.0312 46.8192 16.0312 44.0233C16.0312 41.2273 13.7647 38.9608 10.9688 38.9608C8.17281 38.9608 5.90625 41.2273 5.90625 44.0233C5.90625 46.8192 8.17281 49.0858 10.9688 49.0858Z" fill="#6A7073"/>
<path d="M10.9688 45.7108C11.9007 45.7108 12.6562 44.9552 12.6562 44.0233C12.6562 43.0913 11.9007 42.3358 10.9688 42.3358C10.0368 42.3358 9.28125 43.0913 9.28125 44.0233C9.28125 44.9552 10.0368 45.7108 10.9688 45.7108Z" fill="#99A2A7"/>
<path d="M16.0312 37.2733H31.2188V38.9608C31.2188 39.4083 31.041 39.8375 30.7245 40.154C30.408 40.4705 29.9788 40.6483 29.5312 40.6483H17.7188C17.2712 40.6483 16.842 40.4705 16.5255 40.154C16.209 39.8375 16.0312 39.4083 16.0312 38.9608V37.2733Z" fill="#EA8333"/>
<path d="M30.5285 33.8983C31.3757 33.8983 32.0625 34.6537 32.0625 35.5858C32.0625 36.5178 31.3757 37.2733 30.5285 37.2733H16.7215C15.8743 37.2733 15.1875 36.5178 15.1875 35.5858C15.1875 34.6537 15.8743 33.8983 16.7215 33.8983H30.5285Z" fill="#794832"/>
<path d="M16.875 30.5233H30.375V33.8983H16.875V30.5233Z" fill="#FDD14B"/>
<path d="M32.9062 31.367C32.9062 32.765 31.719 33.8983 30.2544 33.8983C29.8221 33.9016 29.3953 33.8003 29.0104 33.6032C28.6256 33.4061 28.2941 33.1189 28.0441 32.7661C27.7919 33.1164 27.46 33.4017 27.0759 33.5985C26.6917 33.7953 26.2662 33.8979 25.8346 33.8979C25.4029 33.8979 24.9775 33.7953 24.5933 33.5985C24.2091 33.4017 23.8772 33.1164 23.625 32.7661C23.3728 33.1164 23.0409 33.4017 22.6567 33.5985C22.2725 33.7953 21.8471 33.8979 21.4154 33.8979C20.9838 33.8979 20.5583 33.7953 20.1741 33.5985C19.79 33.4017 19.4581 33.1164 19.2059 32.7661C18.9559 33.1189 18.6244 33.4061 18.2395 33.6032C17.8547 33.8003 17.4279 33.9016 16.9956 33.8983C15.531 33.8983 14.3438 32.765 14.3438 31.367C14.3438 31.1432 14.4326 30.9286 14.5909 30.7704C14.7491 30.6121 14.9637 30.5233 15.1875 30.5233H32.0625C32.2863 30.5233 32.5009 30.6121 32.6591 30.7704C32.8174 30.9286 32.9062 31.1432 32.9062 31.367Z" fill="#3BA673"/>
<path d="M31.2188 23.7733V17.0233C31.2187 16.8546 31.2693 16.6899 31.3638 16.5502C31.4584 16.4106 31.5926 16.3025 31.7492 16.2398L35.9679 14.5523C36.0708 14.5112 36.1808 14.4907 36.2916 14.4921C36.4024 14.4934 36.5118 14.5166 36.6136 14.5602C36.7155 14.6039 36.8077 14.6672 36.8851 14.7465C36.9625 14.8258 37.0235 14.9195 37.0647 15.0224C37.1058 15.1253 37.1263 15.2353 37.125 15.3461C37.1236 15.4569 37.1004 15.5663 37.0568 15.6682C37.0131 15.77 36.9499 15.8623 36.8706 15.9396C36.7912 16.017 36.6975 16.078 36.5946 16.1192L32.9063 17.5945V23.7733H31.2188Z" fill="#E74444"/>
<path d="M31.2188 20.3983H32.9062V23.7733H31.2188V20.3983Z" fill="#CE3536"/>
</svg>
