<svg width="35" height="19" viewBox="0 0 35 19" fill="none" xmlns="http://www.w3.org/2000/svg">
<path d="M34.6231 9.72351C34.6231 14.7813 30.1103 18.915 24.4693 18.915C18.882 18.915 14.3154 14.7813 14.3154 9.72351C14.3154 4.66574 18.8283 0.531982 24.4156 0.531982C30.1103 0.531982 34.6231 4.66574 34.6231 9.72351Z" fill="#FFB600"/>
<path d="M24.4693 0.531982C30.0566 0.531982 34.6231 4.66574 34.6231 9.72351C34.6231 14.7813 30.1103 18.915 24.4693 18.915C18.882 18.915 14.3154 14.7813 14.3154 9.72351" fill="#F7981D"/>
<path d="M24.4692 0.531982C30.0565 0.531982 34.6231 4.66574 34.6231 9.72351C34.6231 14.7813 30.1103 18.915 24.4692 18.915" fill="#FF8500"/>
<path d="M10.8238 0.531982C5.29017 0.580615 0.777344 4.66574 0.777344 9.72351C0.777344 14.7813 5.29017 18.915 10.9312 18.915C13.5637 18.915 15.9275 17.991 17.7542 16.532C18.1302 16.2402 18.4526 15.8998 18.7749 15.5594H16.6797C16.4111 15.2676 16.1424 14.9272 15.9275 14.6354H19.5271C19.742 14.3436 19.9568 14.0032 20.118 13.6627H15.3366C15.1754 13.3709 15.0142 13.0305 14.9068 12.6901H20.4941C20.8164 11.7661 21.0313 10.7934 21.0313 9.77214C21.0313 9.09128 20.9239 8.45906 20.8164 7.82684H14.5844C14.6382 7.48642 14.7456 7.19462 14.8531 6.85419H20.4404C20.3329 6.51377 20.1717 6.17334 20.0106 5.88155H15.2829C15.444 5.54112 15.6589 5.24933 15.8738 4.9089H19.4733C19.2584 4.56847 18.9898 4.22804 18.6675 3.93625H16.6797C17.002 3.59582 17.3244 3.30403 17.7004 3.01224C15.9275 1.50463 13.51 0.629247 10.8775 0.629247C10.8775 0.531982 10.8775 0.531982 10.8238 0.531982Z" fill="#FF5050"/>
<path d="M0.777344 9.72365C0.777344 14.7814 5.29017 18.9152 10.9312 18.9152C13.5637 18.9152 15.9275 17.9912 17.7542 16.5322C18.1302 16.2404 18.4526 15.9 18.7749 15.5595H16.6797C16.4111 15.2677 16.1424 14.9273 15.9275 14.6355H19.5271C19.742 14.3437 19.9568 14.0033 20.118 13.6629H15.3366C15.1754 13.3711 15.0142 13.0307 14.9068 12.6902H20.4941C20.8164 11.7662 21.0313 10.7936 21.0313 9.77228C21.0313 9.09143 20.9239 8.45921 20.8164 7.82699H14.5844C14.6382 7.48656 14.7456 7.19477 14.8531 6.85434H20.4404C20.3329 6.51391 20.1717 6.17349 20.0106 5.88169H15.2829C15.444 5.54127 15.6589 5.24947 15.8738 4.90905H19.4733C19.2584 4.56862 18.9898 4.22819 18.6675 3.9364H16.6797C17.002 3.59597 17.3244 3.30418 17.7004 3.01238C15.9275 1.50478 13.51 0.629395 10.8775 0.629395H10.8238" fill="#E52836"/>
<path d="M10.9317 18.9152C13.5641 18.9152 15.928 17.9912 17.7546 16.5322C18.1307 16.2404 18.453 15.9 18.7754 15.5595H16.6801C16.4115 15.2677 16.1429 14.9273 15.928 14.6355H19.5275C19.7424 14.3437 19.9573 14.0033 20.1185 13.6629H15.337C15.1759 13.3711 15.0147 13.0307 14.9072 12.6902H20.4946C20.8169 11.7662 21.0318 10.7936 21.0318 9.77228C21.0318 9.09143 20.9243 8.45921 20.8169 7.82699H14.5849C14.6386 7.48656 14.7461 7.19477 14.8535 6.85434H20.4408C20.3334 6.51391 20.1722 6.17349 20.011 5.88169H15.2833C15.4445 5.54127 15.6594 5.24947 15.8743 4.90905H19.4738C19.2589 4.56862 18.9903 4.22819 18.6679 3.9364H16.6801C17.0025 3.59597 17.3248 3.30418 17.7009 3.01238C15.928 1.50478 13.5104 0.629395 10.8779 0.629395H10.8242" fill="#CB2026"/>
<path d="M14.5297 12.057L14.6909 11.2302C14.6371 11.2302 14.5297 11.2789 14.4222 11.2789C14.0462 11.2789 13.9924 11.0843 14.0462 10.9871L14.3685 9.28495H14.9595L15.1206 8.36093H14.5834L14.6909 7.77734H13.6164C13.6164 7.77734 12.9717 10.9871 12.9717 11.3761C12.9717 11.9597 13.3477 12.2029 13.8313 12.2029C14.1536 12.2029 14.4222 12.1056 14.5297 12.057Z" fill="white"/>
<path d="M14.9092 10.5005C14.9092 11.8622 15.9299 12.2027 16.7895 12.2027C17.5954 12.2027 17.9177 12.0568 17.9177 12.0568L18.1326 11.1327C18.1326 11.1327 17.5417 11.3759 17.0044 11.3759C15.8225 11.3759 16.0374 10.5978 16.0374 10.5978H18.2401C18.2401 10.5978 18.4012 9.96556 18.4012 9.7224C18.4012 9.09018 18.0252 8.31206 16.8432 8.31206C15.715 8.2148 14.9092 9.28471 14.9092 10.5005ZM16.7895 9.09018C17.3805 9.09018 17.273 9.7224 17.273 9.77103H16.0911C16.0911 9.7224 16.1986 9.09018 16.7895 9.09018Z" fill="white"/>
<path d="M23.6179 12.0572L23.8328 10.9873C23.8328 10.9873 23.2956 11.2304 22.9195 11.2304C22.1674 11.2304 21.845 10.6955 21.845 10.1119C21.845 8.94471 22.4897 8.31249 23.2418 8.31249C23.7791 8.31249 24.2089 8.60429 24.2089 8.60429L24.37 7.58301C24.37 7.58301 23.7254 7.33984 23.1344 7.33984C21.8987 7.33984 20.6631 8.31249 20.6631 10.1605C20.6631 11.3763 21.3078 12.2031 22.5972 12.2031C23.0269 12.2031 23.6179 12.0572 23.6179 12.0572Z" fill="white"/>
<path d="M8.62257 8.21509C7.87043 8.21509 7.33319 8.40962 7.33319 8.40962L7.17202 9.23637C7.17202 9.23637 7.65554 9.04184 8.35395 9.04184C8.73002 9.04184 9.05236 9.09047 9.05236 9.38227C9.05236 9.57679 8.99864 9.62543 8.99864 9.62543C8.99864 9.62543 8.67629 9.62543 8.51512 9.62543C7.60181 9.62543 6.58105 9.96585 6.58105 11.0844C6.58105 11.9598 7.22574 12.1543 7.60181 12.1543C8.35395 12.1543 8.67629 11.7166 8.73002 11.7166L8.67629 12.1057H9.64333L10.0731 9.4309C10.0731 8.26372 8.99864 8.21509 8.62257 8.21509ZM8.83747 10.4035C8.83747 10.5494 8.73002 11.3276 8.08533 11.3276C7.76298 11.3276 7.65554 11.0844 7.65554 10.9385C7.65554 10.6953 7.81671 10.3549 8.62257 10.3549C8.78374 10.4035 8.83747 10.4035 8.83747 10.4035Z" fill="white"/>
<path d="M11.0941 12.1541C11.3627 12.1541 12.7058 12.2027 12.7058 10.8897C12.7058 9.67387 11.4164 9.91703 11.4164 9.4307C11.4164 9.18754 11.6313 9.09028 12.0074 9.09028C12.1685 9.09028 12.7595 9.13891 12.7595 9.13891L12.9207 8.26352C12.9207 8.26352 12.5446 8.16626 11.8999 8.16626C11.0941 8.16626 10.2882 8.45805 10.2882 9.4307C10.2882 10.5492 11.6313 10.452 11.6313 10.8897C11.6313 11.1815 11.2552 11.2301 10.9866 11.2301C10.5031 11.2301 10.0196 11.0842 10.0196 11.0842L9.8584 11.9596C9.91212 12.0569 10.1807 12.1541 11.0941 12.1541Z" fill="white"/>
<path d="M32.534 7.43701L32.3191 8.75009C32.3191 8.75009 31.8893 8.26376 31.2983 8.26376C30.3313 8.26376 29.4717 9.33368 29.4717 10.5981C29.4717 11.3762 29.9015 12.203 30.8148 12.203C31.4595 12.203 31.8355 11.8139 31.8355 11.8139L31.7818 12.1544H32.8563L33.6622 7.48564L32.534 7.43701ZM32.0504 10.0145C32.0504 10.5495 31.7818 11.2303 31.1908 11.2303C30.8148 11.2303 30.5999 10.9385 30.5999 10.4522C30.5999 9.6741 30.976 9.18778 31.4595 9.18778C31.8355 9.18778 32.0504 9.43094 32.0504 10.0145Z" fill="white"/>
<path d="M2.76978 12.1057L3.41447 8.60419L3.52192 12.1057H4.27406L5.67088 8.60419L5.07992 12.1057H6.20812L7.06771 7.43701H5.29481L4.22033 10.3063L4.16661 7.43701H2.60861L1.74902 12.1057H2.76978Z" fill="white"/>
<path d="M19.4241 12.1053C19.7465 10.5005 19.8002 9.18739 20.5523 9.43056C20.6598 8.79834 20.8209 8.55517 20.9284 8.31201C20.9284 8.31201 20.8747 8.31201 20.7135 8.31201C20.23 8.31201 19.8539 8.8956 19.8539 8.8956L19.9614 8.36064H18.9406L18.2422 12.154H19.4241V12.1053Z" fill="white"/>
<path d="M26.0879 8.21509C25.3358 8.21509 24.7985 8.40962 24.7985 8.40962L24.6374 9.23637C24.6374 9.23637 25.1209 9.04184 25.8193 9.04184C26.1954 9.04184 26.5177 9.09047 26.5177 9.38227C26.5177 9.57679 26.464 9.62543 26.464 9.62543C26.464 9.62543 26.1416 9.62543 25.9805 9.62543C25.0671 9.62543 24.0464 9.96585 24.0464 11.0844C24.0464 11.9598 24.6911 12.1543 25.0671 12.1543C25.8193 12.1543 26.1416 11.7166 26.1954 11.7166L26.1416 12.1057H27.1087L27.5385 9.4309C27.5922 8.26372 26.464 8.21509 26.0879 8.21509ZM26.3565 10.4035C26.3565 10.5494 26.2491 11.3276 25.6044 11.3276C25.282 11.3276 25.1746 11.0844 25.1746 10.9385C25.1746 10.6953 25.3358 10.3549 26.1416 10.3549C26.3028 10.4035 26.3028 10.4035 26.3565 10.4035Z" fill="white"/>
<path d="M28.4476 12.1053C28.7699 10.5005 28.8236 9.18739 29.5758 9.43056C29.6832 8.79834 29.8444 8.55517 29.9518 8.31201C29.9518 8.31201 29.8981 8.31201 29.7369 8.31201C29.2534 8.31201 28.8773 8.8956 28.8773 8.8956L28.9848 8.36064H27.964L27.2656 12.154H28.4476V12.1053Z" fill="white"/>
<path d="M12.8662 11.3761C12.8662 11.9597 13.2423 12.2029 13.7258 12.2029C14.1019 12.2029 14.4242 12.1056 14.5317 12.057L14.6928 11.2302C14.6391 11.2302 14.5317 11.2789 14.4242 11.2789C14.0481 11.2789 13.9944 11.0843 14.0481 10.9871L14.3705 9.28495H14.9615L15.1226 8.36093H14.5854L14.6928 7.77734" fill="#DCE5E5"/>
<path d="M15.4443 10.5005C15.4443 11.8622 15.9279 12.2027 16.7874 12.2027C17.5933 12.2027 17.9156 12.0568 17.9156 12.0568L18.1305 11.1327C18.1305 11.1327 17.5396 11.3759 17.0023 11.3759C15.8204 11.3759 16.0353 10.5978 16.0353 10.5978H18.238C18.238 10.5978 18.3992 9.96556 18.3992 9.7224C18.3992 9.09018 18.0231 8.31206 16.8412 8.31206C15.713 8.2148 15.4443 9.28471 15.4443 10.5005ZM16.7874 9.09018C17.3784 9.09018 17.4859 9.7224 17.4859 9.77103H16.089C16.089 9.7224 16.1965 9.09018 16.7874 9.09018Z" fill="#DCE5E5"/>
<path d="M23.6158 12.0572L23.8307 10.9873C23.8307 10.9873 23.2935 11.2304 22.9174 11.2304C22.1653 11.2304 21.8429 10.6955 21.8429 10.1119C21.8429 8.94471 22.4876 8.31249 23.2398 8.31249C23.777 8.31249 24.2068 8.60429 24.2068 8.60429L24.368 7.58301C24.368 7.58301 23.7233 7.33984 23.1323 7.33984C21.8967 7.33984 21.1982 8.31249 21.1982 10.1605C21.1982 11.3763 21.3057 12.2031 22.5951 12.2031C23.0249 12.2031 23.6158 12.0572 23.6158 12.0572Z" fill="#DCE5E5"/>
<path d="M7.17202 9.28466C7.17202 9.28466 7.65554 9.09013 8.35395 9.09013C8.73002 9.09013 9.05236 9.13876 9.05236 9.43056C9.05236 9.62509 8.99864 9.67372 8.99864 9.67372C8.99864 9.67372 8.67629 9.67372 8.51512 9.67372C7.60181 9.67372 6.58105 10.0141 6.58105 11.1327C6.58105 12.0081 7.22574 12.2026 7.60181 12.2026C8.35395 12.2026 8.67629 11.7649 8.73002 11.7649L8.67629 12.154H9.64333L10.0731 9.47919C10.0731 8.36064 8.99864 8.31201 8.56885 8.31201L7.17202 9.28466ZM9.37471 10.4032C9.37471 10.5491 8.73002 11.3272 8.08533 11.3272C7.76298 11.3272 7.65554 11.0841 7.65554 10.9382C7.65554 10.695 7.81671 10.3546 8.62257 10.3546C8.78374 10.4032 9.37471 10.4032 9.37471 10.4032Z" fill="#DCE5E5"/>
<path d="M9.91309 12.0569C9.91309 12.0569 10.2354 12.1541 11.1487 12.1541C11.4174 12.1541 12.7605 12.2027 12.7605 10.8897C12.7605 9.67387 11.4711 9.91703 11.4711 9.4307C11.4711 9.18754 11.686 9.09028 12.062 9.09028C12.2232 9.09028 12.8142 9.13891 12.8142 9.13891L12.9754 8.26352C12.9754 8.26352 12.5993 8.16626 11.9546 8.16626C11.1487 8.16626 10.8801 8.45805 10.8801 9.4307C10.8801 10.5492 11.686 10.452 11.686 10.8897C11.686 11.1815 11.3099 11.2301 11.0413 11.2301" fill="#DCE5E5"/>
<path d="M32.3165 8.75004C32.3165 8.75004 31.8867 8.26371 31.2957 8.26371C30.3287 8.26371 30.0063 9.33363 30.0063 10.5981C30.0063 11.3762 29.8989 12.2029 30.8122 12.2029C31.4569 12.2029 31.833 11.8139 31.833 11.8139L31.7792 12.1543H32.8537L33.6596 7.4856L32.3165 8.75004ZM32.2628 10.0145C32.2628 10.5494 31.7792 11.2303 31.1883 11.2303C30.8122 11.2303 30.5973 10.9385 30.5973 10.4522C30.5973 9.67405 30.9734 9.18773 31.4569 9.18773C31.833 9.18773 32.2628 9.43089 32.2628 10.0145Z" fill="#DCE5E5"/>
<path d="M2.76978 12.1057L3.41447 8.60419L3.52192 12.1057H4.27406L5.67088 8.60419L5.07992 12.1057H6.20812L7.06771 7.43701H5.72461L4.22033 10.3063L4.16661 7.43701H3.57564L1.74902 12.1057H2.76978Z" fill="#DCE5E5"/>
<path d="M18.2949 12.1053H19.4231C19.7455 10.5005 19.7992 9.18739 20.5513 9.43056C20.6588 8.79834 20.82 8.55517 20.9274 8.31201C20.9274 8.31201 20.8737 8.31201 20.7125 8.31201C20.229 8.31201 19.8529 8.8956 19.8529 8.8956L19.9604 8.36064" fill="#DCE5E5"/>
<path d="M24.6374 9.28466C24.6374 9.28466 25.1209 9.09013 25.8193 9.09013C26.1953 9.09013 26.5177 9.13876 26.5177 9.43056C26.5177 9.62509 26.464 9.67372 26.464 9.67372C26.464 9.67372 26.1416 9.67372 25.9805 9.67372C25.0671 9.67372 24.0464 10.0141 24.0464 11.1327C24.0464 12.0081 24.6911 12.2026 25.0671 12.2026C25.8193 12.2026 26.1416 11.7649 26.1954 11.7649L26.1416 12.154H27.1087L27.5385 9.47919C27.5385 8.36064 26.464 8.31201 26.0342 8.31201L24.6374 9.28466ZM26.84 10.4032C26.84 10.5491 26.1953 11.3272 25.5507 11.3272C25.2283 11.3272 25.1209 11.0841 25.1209 10.9382C25.1209 10.695 25.282 10.3546 26.0879 10.3546C26.3028 10.4032 26.84 10.4032 26.84 10.4032Z" fill="#DCE5E5"/>
<path d="M27.3232 12.1056H28.4514C28.7738 10.5007 28.8275 9.18764 29.5797 9.4308C29.6871 8.79858 29.8483 8.55542 29.9557 8.31226C29.9557 8.31226 29.902 8.31226 29.7408 8.31226C29.2573 8.31226 28.8812 8.89584 28.8812 8.89584L28.9887 8.36089" fill="#DCE5E5"/>
</svg>
