<svg width="19" height="20" viewBox="0 0 19 20" fill="none" xmlns="http://www.w3.org/2000/svg">
<path d="M16.6704 4.57984C16.5363 4.50834 16.3713 4.50337 16.2323 4.56657C16.0934 4.62993 15.9995 4.75273 15.9829 4.89267C15.9664 5.02877 15.9408 5.16483 15.9087 5.30758C15.0113 8.99428 13.2091 10.7874 10.3977 10.7874H6.2728C6.0553 10.7878 5.86804 10.9264 5.82456 11.1193L4.44958 16.9535L4.20393 18.4388C4.06269 19.1142 4.55304 19.7654 5.29914 19.8933C5.38143 19.9074 5.46491 19.9146 5.54866 19.915H8.30777C8.94018 19.9167 9.49155 19.526 9.64151 18.9699L10.7561 14.9363H13.1477C15.9701 14.9363 17.9207 12.8992 18.6403 9.20008C19.1153 7.43864 18.3295 5.59568 16.6704 4.57984Z" fill="#03A9F4"/>
<path d="M15.8048 1.47869C14.8991 0.548734 13.5994 0.0111155 12.2299 3.02154e-05H4.63995C3.50409 -0.005493 2.53705 0.746791 2.37218 1.76411L0.0154638 15.9956C-0.0974136 16.6754 0.419794 17.3093 1.17075 17.4115C1.2389 17.4208 1.30777 17.4254 1.3767 17.4254H4.89665C5.11415 17.425 5.30141 17.2864 5.34489 17.0935L6.64197 11.6169H10.4003C13.6617 11.6169 15.8168 9.55328 16.8068 5.47657C16.8466 5.31406 16.8772 5.14984 16.8984 4.98449C17.1282 3.7268 16.7274 2.44179 15.8048 1.47869Z" fill="#283593"/>
</svg>
