<svg width="49" height="14" viewBox="0 0 49 14" fill="none" xmlns="http://www.w3.org/2000/svg">
<path d="M19.9921 0.0634766L17.614 13.4596H21.4151L23.7917 0.0634766H19.9921ZM31.4576 5.52032C30.1292 4.92653 29.3149 4.52577 29.3149 3.91846C29.3312 3.36628 30.0035 2.80057 31.505 2.80057C32.7399 2.77249 33.6476 3.0352 34.3362 3.29659L34.6811 3.43596L35.1979 0.633153C34.4471 0.37044 33.2567 0.0809705 31.7863 0.0809705C28.0326 0.0809705 25.3894 1.84763 25.373 4.37435C25.342 6.23892 27.2654 7.2736 28.7048 7.89429C30.1752 8.531 30.6757 8.94382 30.6757 9.50953C30.6595 10.3781 29.4868 10.7788 28.3925 10.7788C26.8763 10.7788 26.0618 10.5724 24.8254 10.0885L24.3249 9.88206L23.7933 12.7948C24.6862 13.1541 26.3283 13.4704 28.0328 13.4865C32.0219 13.4865 34.6176 11.7466 34.6503 9.05378C34.6633 7.57659 33.6491 6.44518 31.4576 5.52032ZM44.9427 0.104934H42.0019C41.0957 0.104934 40.4071 0.340891 40.0147 1.18269L34.3685 13.4596H38.3577L39.4563 10.8016H43.9194L44.4895 13.4704H48.0078L44.9427 0.104934ZM40.5627 8.11922C40.6396 8.12598 42.0938 3.78027 42.0938 3.78027L43.2518 8.11922C43.2518 8.11922 41.3135 8.11922 40.5627 8.11922ZM14.4378 0.0634766L10.7137 9.16493L10.308 7.37004C9.61941 5.29906 7.46055 3.04858 5.05127 1.93069L8.46146 13.4462H12.4833L18.4596 0.0649459H14.4378V0.0634766Z" fill="#2394BC"/>
<path d="M9.05643 1.79195C8.76622 0.770501 7.84067 0.0815959 6.58365 0.0668945H0.68574L0.625 0.314759C5.22578 1.3415 9.08745 4.50082 10.3402 7.47254L9.05643 1.79195Z" fill="#EFC75E"/>
</svg>
